<svg width="564" height="153" viewBox="0 0 564 153" fill="none" xmlns="http://www.w3.org/2000/svg">
<path d="M156.828 102H140.844V99.912C142.572 99.144 144.3 98.568 146.028 98.184L164.244 50.736H166.332L184.548 98.184C185.508 98.376 186.444 98.592 187.356 98.832C188.316 99.072 189.204 99.432 190.02 99.912V102H171.588V99.912C172.548 99.528 173.532 99.192 174.54 98.904C175.548 98.616 176.532 98.376 177.492 98.184L172.596 85.008H155.388L150.636 98.184C152.652 98.472 154.716 99.048 156.828 99.912V102ZM156.828 81.264H171.372L165.684 66L164.316 59.808H164.172L162.372 66.144L156.828 81.264ZM219.512 92.568C219.512 93.624 219.536 94.536 219.584 95.304C219.632 96.072 219.68 96.888 219.728 97.752L224.696 98.472V99.984C223.496 100.608 222.152 101.16 220.664 101.64C219.224 102.12 217.832 102.48 216.488 102.72H214.688C214.208 101.616 213.92 100.416 213.824 99.12C213.728 97.776 213.656 96.312 213.608 94.728H213.248C213.056 95.688 212.672 96.672 212.096 97.68C211.568 98.64 210.848 99.504 209.936 100.272C209.072 101.04 208.04 101.664 206.84 102.144C205.64 102.624 204.272 102.864 202.736 102.864C199.808 102.864 197.408 101.976 195.536 100.2C193.712 98.424 192.8 96.096 192.8 93.216C192.8 91.008 193.232 89.208 194.096 87.816C195.008 86.376 196.328 85.248 198.056 84.432C199.784 83.616 201.92 83.04 204.464 82.704C207.008 82.32 209.96 82.032 213.32 81.84C213.512 79.776 213.56 77.928 213.464 76.296C213.416 74.616 213.152 73.2 212.672 72.048C212.24 70.848 211.568 69.936 210.656 69.312C209.792 68.64 208.64 68.304 207.2 68.304C206.528 68.304 205.76 68.352 204.896 68.448C204.08 68.496 203.264 68.688 202.448 69.024L199.064 77.664H197.192C196.712 76.224 196.28 74.736 195.896 73.2C195.56 71.664 195.344 70.152 195.248 68.664C197.072 67.56 199.088 66.696 201.296 66.072C203.552 65.448 206.048 65.136 208.784 65.136C211.232 65.136 213.176 65.496 214.616 66.216C216.104 66.888 217.232 67.776 218 68.88C218.768 69.984 219.272 71.208 219.512 72.552C219.752 73.896 219.872 75.24 219.872 76.584C219.872 79.464 219.8 82.248 219.656 84.936C219.56 87.576 219.512 90.12 219.512 92.568ZM205.616 98.4C206.816 98.4 207.872 98.16 208.784 97.68C209.696 97.2 210.464 96.624 211.088 95.952C211.712 95.28 212.216 94.608 212.6 93.936C212.984 93.216 213.248 92.616 213.392 92.136V84.576C210.608 84.576 208.328 84.72 206.552 85.008C204.776 85.296 203.384 85.752 202.376 86.376C201.368 87 200.672 87.792 200.288 88.752C199.904 89.664 199.712 90.72 199.712 91.92C199.712 93.984 200.24 95.592 201.296 96.744C202.352 97.848 203.792 98.4 205.616 98.4ZM243.912 71.4C243.384 71.688 242.712 72.288 241.896 73.2C241.128 74.064 240.432 75.36 239.808 77.088V98.472C240.768 98.568 241.728 98.76 242.688 99.048C243.648 99.288 244.608 99.672 245.568 100.2V102H228.576V100.2C229.44 99.72 230.256 99.36 231.024 99.12C231.792 98.88 232.56 98.664 233.328 98.472V70.176L228.576 69.6V67.728C230.112 67.056 231.696 66.528 233.328 66.144C234.96 65.712 236.52 65.376 238.008 65.136H239.808V72.768H240.096C240.528 71.808 241.128 70.848 241.896 69.888C242.712 68.928 243.624 68.064 244.632 67.296C245.688 66.528 246.816 65.952 248.016 65.568C249.264 65.136 250.536 64.992 251.832 65.136C252.168 65.76 252.456 66.456 252.696 67.224C252.984 67.944 253.248 68.712 253.488 69.528V71.4H243.912ZM256.929 84C256.929 80.976 257.313 78.312 258.081 76.008C258.897 73.656 260.049 71.688 261.537 70.104C263.025 68.472 264.801 67.248 266.865 66.432C268.977 65.568 271.305 65.136 273.849 65.136C276.825 65.136 279.393 65.592 281.553 66.504C283.713 67.416 285.465 68.712 286.809 70.392C288.201 72.024 289.209 73.992 289.833 76.296C290.505 78.6 290.841 81.168 290.841 84C290.841 90.048 289.305 94.704 286.233 97.968C283.161 101.232 279.033 102.864 273.849 102.864C270.969 102.864 268.473 102.432 266.361 101.568C264.249 100.656 262.497 99.384 261.105 97.752C259.713 96.072 258.657 94.08 257.937 91.776C257.265 89.424 256.929 86.832 256.929 84ZM263.841 84C263.841 86.16 264.033 88.2 264.417 90.12C264.849 92.04 265.497 93.72 266.361 95.16C267.273 96.552 268.449 97.656 269.889 98.472C271.329 99.288 273.057 99.696 275.073 99.696C277.665 99.696 279.777 98.424 281.409 95.88C283.089 93.336 283.929 89.376 283.929 84C283.929 81.792 283.713 79.752 283.281 77.88C282.897 75.96 282.273 74.304 281.409 72.912C280.545 71.472 279.441 70.344 278.097 69.528C276.753 68.712 275.145 68.304 273.273 68.304C270.441 68.304 268.161 69.576 266.433 72.12C264.705 74.664 263.841 78.624 263.841 84ZM335.317 102H319.837V100.2C321.133 99.528 322.549 98.952 324.085 98.472V81.408C324.085 77.76 323.557 74.88 322.501 72.768C321.445 70.656 319.525 69.6 316.741 69.6C315.541 69.6 314.413 69.816 313.357 70.248C312.349 70.68 311.437 71.28 310.621 72.048C309.853 72.768 309.181 73.608 308.605 74.568C308.029 75.48 307.573 76.44 307.237 77.448V98.472C308.725 98.76 310.165 99.336 311.557 100.2V102H296.005V100.2C297.205 99.576 298.789 99 300.757 98.472V70.176L296.005 69.6V67.728C297.253 67.2 298.693 66.72 300.325 66.288C301.957 65.856 303.661 65.472 305.437 65.136H307.237V73.2H307.309C308.317 70.992 309.757 69.096 311.629 67.512C313.549 65.928 315.853 65.136 318.541 65.136C320.461 65.136 322.165 65.376 323.653 65.856C325.189 66.288 326.461 67.08 327.469 68.232C328.477 69.384 329.245 70.944 329.773 72.912C330.301 74.832 330.565 77.28 330.565 80.256V98.472C332.485 98.808 334.069 99.384 335.317 100.2V102ZM375.907 88.896H377.779C378.019 90.24 378.235 91.944 378.427 94.008C378.619 96.024 378.667 97.992 378.571 99.912C377.851 100.488 376.987 100.968 375.979 101.352C374.971 101.688 373.891 101.976 372.739 102.216C371.635 102.456 370.483 102.624 369.283 102.72C368.131 102.816 367.027 102.864 365.971 102.864C361.939 102.864 358.339 102.36 355.171 101.352C352.003 100.296 349.315 98.712 347.107 96.6C344.947 94.488 343.267 91.8 342.067 88.536C340.915 85.224 340.339 81.312 340.339 76.8C340.339 72.096 340.987 68.112 342.283 64.848C343.579 61.536 345.331 58.848 347.539 56.784C349.747 54.672 352.315 53.136 355.243 52.176C358.171 51.216 361.243 50.736 364.459 50.736C367.627 50.736 370.291 50.952 372.451 51.384C374.611 51.768 376.507 52.368 378.139 53.184C378.139 53.952 378.115 54.864 378.067 55.92C378.019 56.928 377.947 58.008 377.851 59.16C377.755 60.312 377.635 61.44 377.491 62.544C377.347 63.648 377.203 64.656 377.059 65.568H375.187L371.443 55.2C370.915 54.912 370.027 54.72 368.779 54.624C367.579 54.528 366.379 54.48 365.179 54.48C362.779 54.48 360.499 54.936 358.339 55.848C356.227 56.712 354.355 58.08 352.723 59.952C351.139 61.776 349.867 64.104 348.907 66.936C347.947 69.72 347.467 73.008 347.467 76.8C347.467 80.208 347.899 83.304 348.763 86.088C349.627 88.824 350.875 91.176 352.507 93.144C354.139 95.064 356.131 96.552 358.483 97.608C360.835 98.616 363.499 99.12 366.475 99.12C368.059 99.12 369.379 99 370.435 98.76C371.491 98.52 372.187 98.208 372.523 97.824L375.907 88.896ZM384.947 102V99.912C386.867 99 388.835 98.424 390.851 98.184V55.488C389.891 55.296 388.907 55.056 387.899 54.768C386.891 54.432 385.907 54.072 384.947 53.688V51.6H392.579C393.491 51.6 394.355 51.576 395.171 51.528C396.035 51.48 396.923 51.432 397.835 51.384C398.747 51.336 399.731 51.288 400.787 51.24C401.843 51.192 403.043 51.168 404.387 51.168C406.307 51.168 408.251 51.336 410.219 51.672C412.235 51.96 414.035 52.536 415.619 53.4C417.251 54.264 418.571 55.488 419.579 57.072C420.587 58.608 421.091 60.624 421.091 63.12C421.091 64.368 420.899 65.616 420.515 66.864C420.131 68.112 419.531 69.288 418.715 70.392C417.947 71.448 416.963 72.384 415.763 73.2C414.563 74.016 413.147 74.616 411.515 75V75.288C412.955 75.528 414.371 75.936 415.763 76.512C417.203 77.088 418.475 77.88 419.579 78.888C420.683 79.848 421.571 81.048 422.243 82.488C422.963 83.928 423.323 85.656 423.323 87.672C423.323 90.264 422.747 92.496 421.595 94.368C420.443 96.24 418.931 97.776 417.059 98.976C415.235 100.176 413.147 101.064 410.795 101.64C408.443 102.168 406.067 102.432 403.667 102.432C401.987 102.432 400.091 102.36 397.979 102.216C395.867 102.072 393.827 102 391.859 102H384.947ZM404.171 98.688C405.899 98.688 407.507 98.424 408.995 97.896C410.531 97.368 411.827 96.648 412.883 95.736C413.987 94.776 414.851 93.648 415.475 92.352C416.099 91.008 416.411 89.568 416.411 88.032C416.411 86.112 416.027 84.528 415.259 83.28C414.539 81.984 413.531 80.976 412.235 80.256C410.987 79.488 409.523 78.96 407.843 78.672C406.211 78.384 404.507 78.24 402.731 78.24H397.331V98.112C398.003 98.304 398.795 98.448 399.707 98.544C400.667 98.64 402.155 98.688 404.171 98.688ZM400.931 74.496C401.747 74.496 402.707 74.472 403.811 74.424C404.963 74.328 405.899 74.232 406.619 74.136C408.827 73.368 410.627 72.144 412.019 70.464C413.459 68.736 414.179 66.72 414.179 64.416C414.179 61.248 413.219 58.872 411.299 57.288C409.427 55.704 406.907 54.912 403.739 54.912C402.251 54.912 400.979 54.936 399.923 54.984C398.867 55.032 398.003 55.104 397.331 55.2V74.496H400.931Z" fill="black"/>
</svg>
