<svg width="29" height="44" viewBox="0 0 29 44" fill="none" xmlns="http://www.w3.org/2000/svg">
<path d="M2 14.7273H0.5H2ZM14.5 2V3.5V2ZM27 14.7273H25.5H27ZM3.5 29.2727V14.7273H0.5V29.2727H3.5ZM3.5 14.7273C3.5 8.50102 8.45023 3.5 14.5 3.5V0.5C6.74265 0.5 0.5 6.89536 0.5 14.7273H3.5ZM14.5 3.5C20.5498 3.5 25.5 8.50102 25.5 14.7273H28.5C28.5 6.89536 22.2574 0.5 14.5 0.5V3.5ZM25.5 14.7273V29.2727H28.5V14.7273H25.5ZM25.5 29.2727C25.5 35.499 20.5498 40.5 14.5 40.5V43.5C22.2574 43.5 28.5 37.1046 28.5 29.2727H25.5ZM14.5 40.5C8.45023 40.5 3.5 35.499 3.5 29.2727H0.5C0.5 37.1046 6.74265 43.5 14.5 43.5V40.5ZM13 8V18H16V8H13Z" fill="black"/>
</svg>
