<svg width="129" height="431" viewBox="0 0 129 431" fill="none" xmlns="http://www.w3.org/2000/svg">
<path d="M106.839 180.243L115.92 212.965C115.92 212.965 114.049 241.948 122.782 236.277C131.718 230.474 128.396 206.034 128.396 206.034L123.161 176.678L106.839 180.243Z" fill="#FFB9B9"/>
<path d="M111.692 88.4505L119.191 96.0256V132.119C119.191 132.119 123.602 138.803 122.72 140.585C121.838 142.367 120.956 142.367 121.838 143.704C122.72 145.041 123.602 145.932 122.72 146.823C121.838 147.714 121.838 149.942 122.72 150.834C123.602 151.725 125.367 153.062 124.044 154.398C122.72 155.735 120.956 154.844 122.72 159.746C124.485 164.647 127.573 165.984 126.69 167.766C125.808 169.549 125.808 174.005 125.808 174.005L106.839 176.678L102.869 126.326L111.692 88.4505Z" fill="#D0CDE1"/>
<path d="M126.69 173.559L104.633 174.45L105.516 183.807L124.926 180.243L126.69 173.559Z" fill="#3F3D56"/>
<path d="M66.0351 41.886L63.3878 68.6212L90.2969 72.6317L92.2823 57.2591L94.2672 41.886H66.0351Z" fill="#FFB9B9"/>
<path opacity="0.1" d="M66.0351 41.886L63.3878 68.6212L90.2969 72.6317L92.2823 57.2591L94.2672 41.886H66.0351Z" fill="black"/>
<path d="M7.585 169.103L22.5834 201.631C22.5834 201.631 25.2302 216.782 29.2004 217.227C33.1706 217.673 37.1408 201.631 37.1408 201.631L31.8472 193.165L25.6713 169.103H7.585Z" fill="#FFB9B9"/>
<path d="M38.9053 198.512L26.5536 218.118C26.5536 218.118 14.6431 404.822 16.4076 403.486C18.1721 402.149 23.9068 401.703 26.1125 398.138C28.3181 394.574 41.9932 398.138 41.9932 398.138L49.9335 389.672V382.988C49.9335 381.651 65.8143 279.61 65.8143 279.61V305.455C65.8143 305.455 60.9618 400.366 68.9021 399.475C76.8425 398.584 93.1644 393.237 93.1644 393.237C93.1644 393.237 116.544 215.89 109.486 209.206C102.428 202.523 99.3402 187.372 99.3402 187.372L38.9053 198.512Z" fill="#2F2E41"/>
<path d="M80.8127 50.575C92.5069 50.575 101.987 40.999 101.987 29.1864C101.987 17.3739 92.5069 7.79791 80.8127 7.79791C69.1185 7.79791 59.6384 17.3739 59.6384 29.1864C59.6384 40.999 69.1185 50.575 80.8127 50.575Z" fill="#FFB9B9"/>
<path d="M33.6117 72.8546L30.5238 71.0722C30.5238 71.0722 16.8487 80.4297 12.4374 101.373C8.02612 122.316 4.9382 127.663 4.9382 127.663C4.9382 127.663 0.526891 128.554 3.6148 131.673C6.70272 134.792 6.70273 134.347 4.05594 136.129C1.40915 137.911 -0.355365 134.347 1.40916 137.911C3.17368 141.476 5.37934 140.585 3.61478 142.813C1.85023 145.041 -1.23766 145.041 0.526872 146.823C2.2914 148.606 -1.23765 152.616 0.968005 154.398C3.17366 156.181 4.05592 156.626 4.05592 159.745C4.04244 161.566 4.34091 163.375 4.93817 165.093H27.877C27.877 165.093 23.4657 156.626 24.7891 154.844C26.1125 153.062 26.5536 151.279 25.6713 150.388C24.7891 149.497 22.1423 151.279 24.7891 149.051C27.4359 146.823 28.3181 148.16 27.4359 145.486C26.5536 142.813 24.7891 144.15 26.5536 142.813C28.3181 141.476 29.6415 141.922 28.7593 140.585C27.877 139.248 26.1125 139.248 27.877 138.357C29.6415 137.466 30.9649 138.357 30.5238 136.129C30.0827 133.901 29.6415 134.792 30.5238 133.901C31.4061 133.01 40.6698 102.71 40.6698 101.818C40.6698 100.927 33.6117 72.8546 33.6117 72.8546Z" fill="#D0CDE1"/>
<path d="M29.2001 163.31L1.40902 165.093L8.46751 171.777L27.8771 172.222L29.2001 163.31Z" fill="#3F3D56"/>
<path d="M37.1408 196.73L31.4061 207.424C31.4061 207.424 48.6101 209.652 54.786 211.88C60.9618 214.108 76.8425 217.227 76.8425 217.227L80.8127 201.631L37.1408 196.73Z" fill="#3F3D56"/>
<path d="M87.4295 201.631L92.2823 216.336L111.692 212.326L109.486 198.512L87.4295 201.631Z" fill="#3F3D56"/>
<path d="M95.37 57.7045C95.37 57.7045 94.0466 56.8133 90.9587 58.5957C87.8708 60.3781 77.7248 61.2693 72.8724 55.9221C68.0199 50.575 64.4909 46.1191 63.1675 47.0102C61.8441 47.9014 60.9618 58.1501 60.9618 58.1501L56.5505 61.7148L30.5238 71.0723L32.7294 131.228L36.6996 145.041C36.6996 145.041 33.6117 155.735 37.5819 161.974C41.552 168.212 35.3762 170.44 35.3762 170.44C35.3762 170.44 34.0528 172.222 34.9351 176.678C35.8173 181.134 34.0528 197.621 34.0528 197.621C34.0528 197.621 71.5489 214.554 110.81 199.849L106.398 182.916L104.193 145.041C104.193 145.041 106.398 138.803 105.957 136.129C105.516 133.456 119.191 96.0256 119.191 96.0256C119.191 96.0256 116.985 77.3107 105.516 73.3003C94.0466 69.29 92.2821 65.2796 92.2821 65.2796C92.2821 65.2796 97.5757 59.4869 95.37 57.7045Z" fill="#D0CDE1"/>
<path d="M59.4916 31.9263C59.4916 31.9263 57.2928 28.5947 58.1385 25.0068C58.6438 22.9697 58.8434 20.8676 58.7305 18.7707C58.7305 18.7707 60.5065 12.9617 62.2824 9.71545C64.0584 6.46924 63.2127 5.10242 68.7944 4.07731C74.3761 3.05219 72.0926 -4.29447 86.8079 3.65018C87.3044 4.35037 87.9951 4.88633 88.7928 5.1904C89.5905 5.49447 90.4596 5.55304 91.2902 5.35871C94.3347 4.76072 95.4342 9.03203 95.4342 9.03203C95.4342 9.03203 97.4639 7.83606 98.225 9.54459C98.9861 11.2531 104.413 8.51915 104.413 20.0517C104.413 31.5843 98.2373 41.8858 98.2373 41.8858C98.2373 41.8858 98.6901 22.4867 88.6262 20.5219C78.5623 18.5571 67.7372 12.8335 65.1155 20.1802C63.7003 24.3035 61.8129 28.2456 59.4916 31.9263Z" fill="#2F2E41"/>
<path d="M98.4579 36.5387C99.5543 36.5387 100.443 35.3417 100.443 33.8651C100.443 32.3885 99.5543 31.1915 98.4579 31.1915C97.3616 31.1915 96.4728 32.3885 96.4728 33.8651C96.4728 35.3417 97.3616 36.5387 98.4579 36.5387Z" fill="#FFB9B9"/>
<path d="M87.2092 391.658L90.3116 401.059C90.3116 401.059 90.3116 410.461 93.414 415.161C96.5164 419.862 99.6188 430.047 87.2092 430.83C74.7996 431.614 69.3705 426.913 69.3705 426.913C69.3705 426.913 71.6973 420.645 69.3705 418.295C67.0437 415.945 69.3705 411.244 69.3705 411.244L71.6972 392.441L87.2092 391.658Z" fill="#2F2E41"/>
<path d="M26.7746 391.658L23.6722 401.059C23.6722 401.059 23.6722 410.461 20.5698 415.161C17.4674 419.862 14.365 430.047 26.7746 430.83C39.1842 431.614 44.6134 426.913 44.6134 426.913C44.6134 426.913 42.2866 420.645 44.6134 418.295C46.9402 415.945 44.6134 411.244 44.6134 411.244L42.2866 392.441L26.7746 391.658Z" fill="#2F2E41"/>
</svg>
