<svg width="237" height="346" viewBox="0 0 237 346" fill="none" xmlns="http://www.w3.org/2000/svg">
<path d="M221.889 117.854L220.218 117.283L235.553 70.631C236.718 67.0852 237.187 63.3401 236.933 59.6096C236.678 55.8791 235.705 52.2363 234.069 48.8891C232.433 45.5419 230.166 42.5559 227.397 40.1016C224.629 37.6472 221.413 35.7726 217.933 34.5848L217.933 34.5848L120.947 1.47475C117.468 0.286923 113.793 -0.190864 110.132 0.0686619C106.472 0.328188 102.897 1.31995 99.6126 2.98731C96.3282 4.65467 93.3981 6.96499 90.9898 9.78635C88.5815 12.6077 86.742 15.8849 85.5764 19.4307L85.5764 19.4308L1.44711 275.369C-0.906825 282.53 -0.372931 290.351 2.93135 297.111C6.23562 303.871 12.0396 309.016 19.0665 311.415H19.0666L116.053 344.525C123.08 346.924 130.754 346.38 137.387 343.013C144.021 339.645 149.07 333.73 151.424 326.569L151.424 326.569L209.302 150.491L210.973 151.062L221.889 117.854Z" fill="black"/>
<path d="M216.693 41.9745L204.033 37.6525C204.137 39.3059 203.841 40.96 203.17 42.4691C202.499 43.9781 201.474 45.2959 200.186 46.3062C198.897 47.3166 197.385 47.9885 195.781 48.2628C194.178 48.5371 192.533 48.4054 190.992 47.8793L135.429 28.9109C133.888 28.3846 132.497 27.4799 131.379 26.2767C130.262 25.0735 129.452 23.6087 129.02 22.0113C128.589 20.4138 128.55 18.7328 128.906 17.1164C129.263 15.4999 130.004 13.9975 131.064 12.7417L119.24 8.70494C113.992 6.91346 108.261 7.31979 103.308 9.83452C98.3539 12.3493 94.5834 16.7664 92.8255 22.1143L8.81958 277.677C7.06168 283.025 7.46039 288.865 9.92799 293.914C12.3956 298.962 16.73 302.804 21.9776 304.596H21.9776L119.431 337.865C122.03 338.753 124.774 339.109 127.507 338.915C130.241 338.722 132.911 337.981 135.363 336.736C137.816 335.491 140.004 333.765 141.803 331.658C143.601 329.551 144.975 327.104 145.845 324.456L229.851 68.8933C230.722 66.2454 231.072 63.4486 230.882 60.6627C230.692 57.8768 229.965 55.1564 228.743 52.6567C227.521 50.1571 225.828 47.9272 223.761 46.0943C221.693 44.2615 219.292 42.8615 216.693 41.9745Z" fill="white"/>
<path d="M192.322 127.713L88.3199 92.208C87.8095 92.0331 87.388 91.659 87.1479 91.1677C86.9078 90.6765 86.8687 90.1083 87.0391 89.5878L95.6813 63.2965C95.853 62.7763 96.22 62.3468 96.7021 62.1021C97.1841 61.8574 97.7416 61.8175 98.2524 61.9912L202.254 97.4963C202.765 97.6712 203.186 98.0453 203.426 98.5365C203.666 99.0277 203.706 99.5959 203.535 100.117L194.893 126.408C194.721 126.928 194.354 127.358 193.872 127.602C193.39 127.847 192.833 127.887 192.322 127.713ZM97.9944 62.7763C97.6879 62.6721 97.3533 62.696 97.0641 62.8428C96.7749 62.9896 96.5547 63.2474 96.4517 63.5595L87.8095 89.8508C87.7072 90.1631 87.7306 90.504 87.8747 90.7988C88.0188 91.0935 88.2717 91.318 88.578 91.4229L192.58 126.928C192.886 127.032 193.221 127.008 193.51 126.861C193.799 126.715 194.02 126.457 194.123 126.145L202.765 99.8535C202.867 99.5412 202.844 99.2002 202.7 98.9055C202.555 98.6108 202.303 98.3863 201.996 98.2814L97.9944 62.7763Z" fill="black"/>
<path d="M158.128 231.739L54.1257 196.234C53.6153 196.059 53.1938 195.685 52.9537 195.193C52.7136 194.702 52.6745 194.134 52.8449 193.614L68.8421 144.947C69.0137 144.427 69.3808 143.997 69.8628 143.752C70.3449 143.508 70.9024 143.468 71.4132 143.642L175.415 179.147C175.926 179.322 176.347 179.696 176.587 180.187C176.827 180.678 176.866 181.246 176.696 181.767L160.699 230.434C160.527 230.954 160.16 231.383 159.678 231.628C159.196 231.873 158.638 231.912 158.128 231.739ZM71.1552 144.427C70.8487 144.322 70.5141 144.346 70.2249 144.493C69.9357 144.64 69.7154 144.898 69.6125 145.21L53.6153 193.876C53.513 194.189 53.5365 194.53 53.6805 194.825C53.8246 195.119 54.0775 195.344 54.3838 195.449L158.386 230.954C158.692 231.058 159.027 231.034 159.316 230.887C159.605 230.74 159.825 230.483 159.928 230.171L175.925 181.504C176.028 181.192 176.004 180.851 175.86 180.556C175.716 180.261 175.463 180.037 175.157 179.932L71.1552 144.427Z" fill="black"/>
<path d="M178.132 168.275L131.909 152.495C131.398 152.32 130.977 151.946 130.737 151.455C130.497 150.964 130.457 150.396 130.628 149.875L139.27 123.584C139.442 123.064 139.809 122.634 140.291 122.389C140.773 122.145 141.33 122.105 141.841 122.278L188.064 138.058C188.575 138.233 188.996 138.607 189.236 139.099C189.476 139.59 189.516 140.158 189.345 140.679L180.703 166.97C180.531 167.49 180.164 167.92 179.682 168.164C179.2 168.409 178.643 168.449 178.132 168.275ZM141.583 123.064C141.277 122.959 140.942 122.983 140.653 123.13C140.364 123.277 140.143 123.535 140.04 123.847L131.398 150.138C131.296 150.45 131.319 150.791 131.463 151.086C131.608 151.381 131.86 151.605 132.167 151.71L178.39 167.49C178.696 167.594 179.031 167.57 179.32 167.424C179.609 167.277 179.83 167.019 179.933 166.707L188.575 140.416C188.677 140.103 188.654 139.762 188.51 139.468C188.365 139.173 188.113 138.948 187.806 138.844L141.583 123.064Z" fill="#E6E6E6"/>
<path d="M79.4452 275.607L33.222 259.827C32.7116 259.652 32.2901 259.278 32.05 258.787C31.8099 258.295 31.7708 257.727 31.9412 257.207L48.0674 208.147C48.2391 207.627 48.6062 207.198 49.0882 206.953C49.5702 206.708 50.1278 206.668 50.6386 206.842L96.8618 222.622C97.3722 222.797 97.7936 223.171 98.0337 223.663C98.2739 224.154 98.313 224.722 98.1425 225.243L82.0163 274.302C81.8447 274.822 81.4776 275.251 80.9956 275.496C80.5136 275.741 79.956 275.781 79.4452 275.607ZM50.3805 207.627C50.074 207.523 49.7395 207.547 49.4503 207.694C49.1611 207.841 48.9408 208.098 48.8378 208.41L32.7116 257.47C32.6093 257.782 32.6328 258.123 32.7768 258.418C32.9209 258.712 33.1738 258.937 33.4801 259.042L79.7032 274.822C80.0097 274.926 80.3443 274.902 80.6335 274.755C80.9227 274.609 81.143 274.351 81.2459 274.039L97.3721 224.98C97.4744 224.667 97.451 224.326 97.3069 224.031C97.1628 223.737 96.9099 223.512 96.6037 223.407L50.3805 207.627Z" fill="#E6E6E6"/>
<path d="M136.454 295.069L90.2304 279.289C89.72 279.114 89.2985 278.74 89.0584 278.249C88.8183 277.757 88.7792 277.189 88.9496 276.669L105.076 227.609C105.248 227.089 105.615 226.66 106.097 226.415C106.579 226.17 107.136 226.131 107.647 226.304L153.87 242.084C154.381 242.259 154.802 242.633 155.042 243.125C155.282 243.616 155.321 244.184 155.151 244.705L139.025 293.764C138.853 294.284 138.486 294.713 138.004 294.958C137.522 295.203 136.964 295.243 136.454 295.069ZM107.389 227.089C107.082 226.985 106.748 227.009 106.459 227.156C106.169 227.303 105.949 227.56 105.846 227.872L89.72 276.932C89.6177 277.244 89.6412 277.585 89.7853 277.88C89.9293 278.174 90.1823 278.399 90.4885 278.504L136.712 294.284C137.018 294.388 137.353 294.364 137.642 294.217C137.931 294.071 138.151 293.813 138.254 293.501L154.381 244.442C154.483 244.129 154.459 243.788 154.315 243.493C154.171 243.199 153.918 242.974 153.612 242.869L107.389 227.089Z" fill="#E6E6E6"/>
<path d="M81.1356 174.567C85.7051 174.567 89.4095 170.792 89.4095 166.135C89.4095 161.479 85.7051 157.703 81.1356 157.703C76.5661 157.703 72.8618 161.479 72.8618 166.135C72.8618 170.792 76.5661 174.567 81.1356 174.567Z" fill="black"/>
<path d="M101.007 166.991C100.835 166.931 100.653 166.907 100.472 166.919C100.29 166.931 100.113 166.979 99.9501 167.061C99.7872 167.143 99.6419 167.258 99.5224 167.397C99.403 167.537 99.3118 167.699 99.254 167.875C99.1963 168.05 99.1732 168.236 99.1861 168.42C99.1989 168.605 99.2475 168.785 99.329 168.951C99.4104 169.117 99.5232 169.264 99.6608 169.385C99.7984 169.506 99.9581 169.598 100.131 169.656L161.773 190.7C161.945 190.76 162.127 190.784 162.308 190.772C162.489 190.76 162.666 190.711 162.829 190.629C162.992 190.547 163.138 190.433 163.257 190.294C163.377 190.154 163.468 189.992 163.526 189.816C163.583 189.64 163.606 189.455 163.593 189.27C163.581 189.085 163.532 188.905 163.451 188.74C163.369 188.574 163.256 188.427 163.119 188.306C162.981 188.185 162.821 188.093 162.649 188.035L101.007 166.991Z" fill="#E6E6E6"/>
<path d="M98.3787 174.986C98.2067 174.926 98.0248 174.902 97.8434 174.914C97.6621 174.926 97.4849 174.974 97.322 175.057C97.1592 175.139 97.0138 175.253 96.8944 175.392C96.7749 175.532 96.6837 175.694 96.626 175.87C96.5682 176.045 96.5452 176.231 96.558 176.416C96.5709 176.6 96.6194 176.781 96.7009 176.946C96.7824 177.112 96.8951 177.259 97.0327 177.38C97.1703 177.501 97.33 177.593 97.5026 177.651L124.027 186.706C124.374 186.822 124.751 186.794 125.076 186.628C125.402 186.461 125.65 186.17 125.766 185.818C125.882 185.466 125.856 185.081 125.694 184.748C125.533 184.415 125.248 184.161 124.903 184.041L98.3787 174.986Z" fill="#E6E6E6"/>
<path d="M70.0405 179.528C69.0459 179.189 68.04 179.51 67.7985 180.245C67.557 180.979 68.1698 181.854 69.1645 182.193L154.211 211.227C155.206 211.567 156.212 211.245 156.453 210.511C156.695 209.776 156.082 208.902 155.087 208.562L70.0405 179.528Z" fill="#E6E6E6"/>
<path d="M67.4124 187.523C66.4178 187.184 65.4118 187.505 65.1704 188.24C64.9289 188.975 65.5417 189.849 66.5364 190.188L151.583 219.222C152.578 219.562 153.584 219.24 153.825 218.506C154.067 217.771 153.454 216.897 152.459 216.557L67.4124 187.523Z" fill="#E6E6E6"/>
<path d="M109.778 90.0395C114.347 90.0395 118.051 86.2644 118.051 81.6076C118.051 76.9508 114.347 73.1757 109.778 73.1757C105.208 73.1757 101.504 76.9508 101.504 81.6076C101.504 86.2644 105.208 90.0395 109.778 90.0395Z" fill="black"/>
<path d="M129.649 82.4631C129.477 82.4043 129.295 82.3806 129.115 82.3933C128.934 82.406 128.757 82.4549 128.595 82.5372C128.433 82.6194 128.288 82.7334 128.169 82.8727C128.05 83.012 127.96 83.1738 127.902 83.3489C127.845 83.524 127.821 83.7089 127.834 83.8931C127.847 84.0772 127.895 84.2571 127.976 84.4223C128.056 84.5876 128.168 84.7349 128.305 84.8561C128.442 84.9772 128.601 85.0696 128.773 85.1281L190.415 106.172C190.761 106.288 191.138 106.26 191.464 106.093C191.789 105.927 192.037 105.636 192.153 105.283C192.269 104.931 192.243 104.547 192.081 104.214C191.92 103.881 191.635 103.627 191.291 103.507L129.649 82.4631Z" fill="#E6E6E6"/>
<path d="M127.021 90.4583C126.849 90.3995 126.667 90.3758 126.487 90.3885C126.306 90.4012 126.129 90.4501 125.967 90.5324C125.805 90.6146 125.66 90.7287 125.541 90.8679C125.422 91.0072 125.332 91.169 125.274 91.3441C125.217 91.5192 125.193 91.7041 125.206 91.8883C125.219 92.0725 125.267 92.2523 125.348 92.4176C125.428 92.5828 125.54 92.7302 125.677 92.8513C125.814 92.9724 125.973 93.0648 126.145 93.1234L152.669 102.179C153.015 102.295 153.393 102.266 153.718 102.1C154.044 101.933 154.292 101.642 154.408 101.29C154.524 100.938 154.498 100.553 154.336 100.22C154.175 99.8875 153.89 99.6334 153.545 99.5135L127.021 90.4583Z" fill="#E6E6E6"/>
<path d="M121.081 148.804L77.7197 134.001L93.8449 119.472C94.1339 119.212 94.4851 119.034 94.8632 118.955C95.2412 118.877 95.6328 118.902 95.9986 119.026C96.3644 119.151 96.6915 119.372 96.947 119.667C97.2025 119.961 97.3775 120.319 97.4542 120.704L99.2841 129.887L110.997 119.334C111.359 119.008 111.798 118.785 112.272 118.687C112.745 118.589 113.235 118.62 113.693 118.776C114.151 118.933 114.561 119.209 114.881 119.578C115.201 119.946 115.42 120.395 115.516 120.877L121.081 148.804ZM79.312 133.671L120.005 147.564L114.719 121.042C114.652 120.702 114.497 120.386 114.272 120.126C114.046 119.866 113.758 119.671 113.435 119.561C113.112 119.451 112.767 119.429 112.433 119.499C112.1 119.568 111.79 119.725 111.535 119.955L98.768 131.457L96.6579 120.869C96.6095 120.626 96.4993 120.401 96.3383 120.215C96.1773 120.029 95.9711 119.89 95.7406 119.812C95.51 119.733 95.2632 119.717 95.0249 119.767C94.7867 119.816 94.5653 119.928 94.3832 120.093L79.312 133.671Z" fill="#E6E6E6"/>
<path d="M176.549 167.74L133.187 152.937L149.313 138.408C149.602 138.148 149.953 137.97 150.331 137.891C150.709 137.813 151.1 137.838 151.466 137.962C151.832 138.087 152.159 138.308 152.415 138.603C152.67 138.897 152.845 139.255 152.922 139.64L154.752 148.823L166.464 138.27C166.826 137.944 167.266 137.721 167.739 137.623C168.213 137.525 168.703 137.556 169.161 137.712C169.619 137.868 170.028 138.145 170.348 138.514C170.668 138.882 170.887 139.331 170.983 139.813L176.549 167.74ZM134.78 152.607L175.472 166.499L170.187 139.978C170.119 139.638 169.965 139.322 169.739 139.062C169.514 138.802 169.225 138.607 168.903 138.497C168.58 138.387 168.235 138.365 167.901 138.434C167.567 138.504 167.258 138.661 167.003 138.891L154.236 150.393L152.125 139.805C152.077 139.562 151.967 139.337 151.806 139.151C151.645 138.965 151.439 138.826 151.208 138.748C150.978 138.669 150.731 138.653 150.493 138.703C150.254 138.752 150.033 138.864 149.851 139.029L134.78 152.607Z" fill="#E6E6E6"/>
<path d="M121.124 148.813L74.9003 133.033C74.3899 132.858 73.9685 132.484 73.7284 131.993C73.4882 131.502 73.4491 130.934 73.6196 130.413L82.2617 104.122C82.4334 103.602 82.8005 103.172 83.2825 102.927C83.7645 102.683 84.3221 102.643 84.8329 102.816L131.056 118.597C131.566 118.771 131.988 119.146 132.228 119.637C132.468 120.128 132.507 120.696 132.337 121.217L123.695 147.508C123.523 148.028 123.156 148.458 122.674 148.702C122.192 148.947 121.634 148.987 121.124 148.813ZM84.5748 103.602C84.2683 103.497 83.9338 103.521 83.6446 103.668C83.3554 103.815 83.1351 104.073 83.0321 104.385L74.39 130.676C74.2877 130.988 74.3111 131.329 74.4552 131.624C74.5993 131.919 74.8521 132.143 75.1584 132.248L121.382 148.028C121.688 148.132 122.023 148.108 122.312 147.962C122.601 147.815 122.821 147.557 122.924 147.245L131.566 120.954C131.669 120.641 131.645 120.3 131.501 120.006C131.357 119.711 131.104 119.487 130.798 119.382L84.5748 103.602Z" fill="#E6E6E6"/>
<path d="M57.1623 220.321C56.9903 220.262 56.8084 220.237 56.6271 220.249C56.4457 220.261 56.2685 220.31 56.1057 220.392C55.9428 220.474 55.7975 220.588 55.678 220.728C55.5585 220.867 55.4673 221.03 55.4096 221.205C55.3519 221.381 55.3288 221.566 55.3417 221.751C55.3545 221.936 55.4031 222.116 55.4845 222.282C55.566 222.447 55.6788 222.595 55.8164 222.716C55.954 222.837 56.1136 222.929 56.2863 222.987L82.811 232.042C82.9827 232.101 83.1641 232.124 83.3449 232.112C83.5256 232.099 83.7022 232.05 83.8644 231.968C84.0266 231.885 84.1713 231.771 84.2902 231.632C84.4091 231.493 84.5 231.331 84.5575 231.156C84.6151 230.981 84.6382 230.796 84.6256 230.612C84.613 230.428 84.5649 230.248 84.484 230.082C84.4032 229.917 84.2912 229.77 84.1544 229.649C84.0177 229.528 83.8588 229.435 83.687 229.377L57.1623 220.321Z" fill="#E6E6E6"/>
<path d="M54.5816 228.173C54.2354 228.056 53.8582 228.085 53.5324 228.251C53.2067 228.418 52.9588 228.709 52.843 229.061C52.7273 229.413 52.753 229.798 52.9146 230.131C53.0763 230.464 53.3607 230.718 53.7056 230.838L80.2303 239.893C80.5765 240.009 80.9537 239.981 81.2795 239.814C81.6053 239.648 81.8532 239.356 81.9689 239.004C82.0847 238.652 82.0589 238.268 81.8973 237.935C81.7357 237.602 81.4513 237.348 81.1063 237.228L54.5816 228.173Z" fill="#E6E6E6"/>
<path d="M59.6593 257.6C58.0314 257.044 56.6019 256.009 55.5513 254.625C54.5008 253.242 53.8765 251.572 53.7573 249.826C53.6382 248.081 54.0295 246.339 54.8819 244.82C55.7343 243.302 57.0095 242.075 58.5461 241.294C60.0828 240.514 61.8119 240.216 63.5148 240.438C65.2178 240.659 66.818 241.39 68.1133 242.538C69.4085 243.687 70.3405 245.201 70.7915 246.889C71.2425 248.577 71.1921 250.363 70.6468 252.022C69.9134 254.245 68.3447 256.081 66.2848 257.126C64.2249 258.172 61.8422 258.342 59.6593 257.6ZM64.9154 241.61C63.44 241.106 61.8511 241.06 60.3496 241.476C58.8482 241.893 57.5018 242.754 56.4805 243.95C55.4592 245.146 54.809 246.625 54.6121 248.198C54.4152 249.771 54.6804 251.368 55.3742 252.787C56.068 254.207 57.1593 255.385 58.51 256.172C59.8607 256.959 61.4101 257.321 62.9624 257.211C64.5147 257.101 66.0001 256.524 67.2308 255.554C68.4615 254.583 69.3822 253.263 69.8765 251.759C70.5367 249.743 70.3852 247.542 69.4551 245.639C68.5251 243.736 66.8925 242.287 64.9154 241.61Z" fill="#E6E6E6"/>
<path d="M129.93 281.59C130.102 281.649 130.284 281.674 130.465 281.662C130.646 281.65 130.824 281.601 130.986 281.519C131.149 281.437 131.295 281.323 131.414 281.183C131.534 281.044 131.625 280.881 131.683 280.706C131.74 280.53 131.763 280.345 131.75 280.16C131.738 279.975 131.689 279.795 131.608 279.629C131.526 279.464 131.413 279.316 131.276 279.195C131.138 279.074 130.978 278.982 130.806 278.925L104.281 269.869C104.109 269.81 103.927 269.785 103.746 269.797C103.565 269.809 103.387 269.858 103.225 269.94C103.062 270.022 102.916 270.136 102.797 270.276C102.677 270.415 102.586 270.577 102.528 270.753C102.471 270.929 102.448 271.114 102.46 271.299C102.473 271.484 102.522 271.664 102.603 271.829C102.685 271.995 102.798 272.142 102.935 272.263C103.073 272.384 103.233 272.477 103.405 272.534L129.93 281.59Z" fill="#E6E6E6"/>
<path d="M132.511 273.739C132.682 273.797 132.864 273.821 133.044 273.808C133.225 273.796 133.402 273.747 133.564 273.665C133.726 273.582 133.871 273.468 133.99 273.329C134.109 273.19 134.2 273.028 134.257 272.853C134.315 272.678 134.338 272.493 134.325 272.309C134.313 272.124 134.264 271.945 134.184 271.779C134.103 271.614 133.991 271.467 133.854 271.346C133.717 271.224 133.558 271.132 133.387 271.074L106.862 262.018C106.69 261.959 106.508 261.934 106.327 261.946C106.145 261.958 105.968 262.007 105.805 262.089C105.642 262.171 105.497 262.285 105.378 262.425C105.258 262.564 105.167 262.726 105.109 262.902C105.051 263.078 105.028 263.263 105.041 263.448C105.054 263.633 105.103 263.813 105.184 263.978C105.266 264.144 105.378 264.291 105.516 264.412C105.654 264.533 105.813 264.625 105.986 264.683L132.511 273.739Z" fill="#E6E6E6"/>
<path d="M127.433 244.311C129.061 244.867 130.49 245.902 131.541 247.286C132.591 248.669 133.216 250.339 133.335 252.085C133.454 253.83 133.063 255.572 132.21 257.091C131.358 258.61 130.083 259.836 128.546 260.617C127.009 261.397 125.28 261.695 123.577 261.473C121.874 261.252 120.274 260.521 118.979 259.373C117.684 258.224 116.752 256.711 116.301 255.022C115.85 253.334 115.9 251.548 116.445 249.889C117.179 247.666 118.748 245.83 120.807 244.785C122.867 243.739 125.25 243.569 127.433 244.311ZM122.177 260.301C123.652 260.805 125.241 260.852 126.743 260.435C128.244 260.018 129.59 259.157 130.612 257.961C131.633 256.765 132.283 255.286 132.48 253.713C132.677 252.14 132.412 250.543 131.718 249.124C131.024 247.704 129.933 246.526 128.582 245.739C127.232 244.952 125.682 244.59 124.13 244.7C122.578 244.81 121.092 245.387 119.861 246.357C118.631 247.328 117.71 248.648 117.216 250.152C116.556 252.168 116.707 254.369 117.637 256.272C118.567 258.175 120.2 259.624 122.177 260.301Z" fill="#E6E6E6"/>
</svg>
