<svg width="217" height="245" viewBox="0 0 217 245" fill="none" xmlns="http://www.w3.org/2000/svg">
<path d="M158.437 198.761L193.08 37.0013L65.3182 9.6398L30.6756 171.4L158.437 198.761Z" fill="#2F2E41"/>
<path d="M216.087 36.7626L44.4272 0L30.6759 64.2101L202.335 100.973L216.087 36.7626Z" fill="black"/>
<path d="M200.749 108.382L29.0892 71.619L15.338 135.829L186.997 172.592L200.749 108.382Z" fill="black"/>
<path d="M185.411 180.001L13.7513 143.238L1.62133e-05 207.448L171.659 244.211L185.411 180.001Z" fill="black"/>
<path d="M210.256 63.9879L38.5966 27.2252L36.481 37.1037L208.14 73.8663L210.256 63.9879Z" fill="white"/>
<path d="M194.918 135.607L23.2587 98.8442L21.1431 108.723L192.802 145.485L194.918 135.607Z" fill="white"/>
<path d="M179.58 207.226L7.92072 170.463L5.80514 180.342L177.465 217.104L179.58 207.226Z" fill="white"/>
<path d="M179.895 42.5721C182.066 43.037 184.182 41.7554 184.62 39.7095C185.058 37.6636 183.653 35.6282 181.482 35.1632C179.311 34.6982 177.196 35.9798 176.757 38.0257C176.319 40.0716 177.724 42.1071 179.895 42.5721Z" fill="white"/>
<path d="M193.654 45.5187C195.825 45.9836 197.941 44.702 198.379 42.6561C198.817 40.6102 197.412 38.5748 195.241 38.1098C193.07 37.6449 190.955 38.9265 190.516 40.9724C190.078 43.0183 191.483 45.0537 193.654 45.5187Z" fill="white"/>
<path d="M207.413 48.4653C209.584 48.9303 211.699 47.6487 212.138 45.6028C212.576 43.5569 211.171 41.5214 209 41.0564C206.829 40.5915 204.714 41.8731 204.275 43.919C203.837 45.9649 205.242 48.0003 207.413 48.4653Z" fill="white"/>
<path d="M164.822 112.956C166.993 113.421 169.108 112.14 169.546 110.094C169.984 108.048 168.58 106.012 166.408 105.547C164.237 105.082 162.122 106.364 161.684 108.41C161.246 110.456 162.651 112.491 164.822 112.956Z" fill="white"/>
<path d="M178.581 115.903C180.752 116.368 182.867 115.086 183.305 113.04C183.743 110.994 182.338 108.959 180.167 108.494C177.996 108.029 175.881 109.311 175.443 111.357C175.005 113.402 176.41 115.438 178.581 115.903Z" fill="white"/>
<path d="M192.34 118.849C194.511 119.314 196.626 118.033 197.064 115.987C197.502 113.941 196.097 111.906 193.926 111.441C191.755 110.976 189.64 112.257 189.202 114.303C188.764 116.349 190.169 118.384 192.34 118.849Z" fill="white"/>
<path d="M149.748 183.34C151.919 183.805 154.035 182.524 154.473 180.478C154.911 178.432 153.506 176.397 151.335 175.932C149.164 175.467 147.049 176.748 146.61 178.794C146.172 180.84 147.577 182.875 149.748 183.34Z" fill="white"/>
<path d="M163.507 186.287C165.678 186.752 167.794 185.47 168.232 183.424C168.67 181.379 167.265 179.343 165.094 178.878C162.923 178.413 160.808 179.695 160.369 181.741C159.931 183.787 161.336 185.822 163.507 186.287Z" fill="white"/>
<path d="M177.266 189.234C179.437 189.699 181.552 188.417 181.991 186.371C182.429 184.325 181.024 182.29 178.853 181.825C176.682 181.36 174.567 182.641 174.128 184.687C173.69 186.733 175.095 188.769 177.266 189.234Z" fill="white"/>
</svg>
