<svg width="330" height="259" viewBox="0 0 330 259" fill="none" xmlns="http://www.w3.org/2000/svg">
<path d="M330 0.229309H0.141342V259H330V0.229309Z" fill="#E6E6E6"/>
<path d="M321.646 32.6854H10.6522V243.691H321.646V32.6854Z" fill="white"/>
<path d="M329.859 0H0V17.1654H329.859V0Z" fill="black"/>
<path d="M10.4143 11.9577C11.8488 11.9577 13.0118 10.5332 13.0118 8.77598C13.0118 7.01877 11.8488 5.59427 10.4143 5.59427C8.97971 5.59427 7.81677 7.01877 7.81677 8.77598C7.81677 10.5332 8.97971 11.9577 10.4143 11.9577Z" fill="white"/>
<path d="M20.2729 11.9577C21.7075 11.9577 22.8704 10.5332 22.8704 8.77598C22.8704 7.01877 21.7075 5.59427 20.2729 5.59427C18.8384 5.59427 17.6754 7.01877 17.6754 8.77598C17.6754 10.5332 18.8384 11.9577 20.2729 11.9577Z" fill="white"/>
<path d="M30.1315 11.9577C31.5661 11.9577 32.729 10.5332 32.729 8.77598C32.729 7.01877 31.5661 5.59427 30.1315 5.59427C28.697 5.59427 27.534 7.01877 27.534 8.77598C27.534 10.5332 28.697 11.9577 30.1315 11.9577Z" fill="white"/>
<path d="M65.0616 62.2605L44.4903 87.1439L65.0616 112.027L69.6901 106.357L54.1348 87.3005L69.8201 68.0873L65.0616 62.2605Z" fill="black"/>
<path d="M81.917 62.2605L102.488 87.1439L81.917 112.027L77.2884 106.357L92.8448 87.3012L77.1584 68.0873L81.917 62.2605Z" fill="black"/>
<path d="M148.456 68.5049C146.774 68.5049 145.41 69.6904 145.41 71.1521C145.41 72.6137 146.774 73.7992 148.456 73.7992H292.068C293.75 73.7992 295.114 72.6137 295.114 71.1521C295.114 69.6904 293.75 68.5049 292.068 68.5049H148.456Z" fill="#E6E6E6"/>
<path d="M290.64 213.535H49.0493C46.5797 213.535 44.5783 211.788 44.5756 209.636V157.406C44.5783 155.254 46.5797 153.507 49.0493 153.507H290.64C293.11 153.507 295.111 155.254 295.114 157.406V209.636C295.112 211.788 293.11 213.532 290.64 213.535ZM49.0493 155.065C47.5674 155.065 46.3666 156.113 46.365 157.405V209.634C46.365 210.925 47.5674 211.972 49.0493 211.973H290.64C292.122 211.973 293.323 210.925 293.324 209.634V157.406C293.324 156.115 292.122 155.068 290.64 155.067L49.0493 155.065Z" fill="#E6E6E6"/>
<path d="M73.9276 196.738C79.897 196.738 84.7362 190.811 84.7362 183.499C84.7362 176.187 79.897 170.259 73.9276 170.259C67.9581 170.259 63.119 176.187 63.119 183.499C63.119 190.811 67.9581 196.738 73.9276 196.738Z" fill="#E6E6E6"/>
<path d="M104.412 172.91C103.839 172.909 103.289 173.187 102.884 173.683C102.478 174.179 102.249 174.852 102.249 175.554C102.248 176.256 102.475 176.929 102.88 177.427C103.284 177.924 103.834 178.203 104.407 178.204H206.295C206.869 178.204 207.418 177.925 207.823 177.429C208.229 176.933 208.456 176.259 208.456 175.557C208.456 174.855 208.229 174.182 207.823 173.685C207.418 173.189 206.869 172.91 206.295 172.91H104.412Z" fill="black"/>
<path d="M104.412 188.794C104.129 188.793 103.848 188.861 103.585 188.994C103.323 189.126 103.084 189.321 102.884 189.566C102.478 190.062 102.249 190.735 102.249 191.437C102.248 192.139 102.475 192.813 102.88 193.31C103.284 193.807 103.834 194.087 104.407 194.088H148.252C148.825 194.089 149.375 193.811 149.781 193.315C150.187 192.819 150.415 192.146 150.416 191.444C150.417 190.742 150.19 190.068 149.785 189.571C149.38 189.074 148.831 188.794 148.258 188.794H104.412Z" fill="black"/>
<path d="M147.407 84.364C146.864 84.4176 146.358 84.7197 145.988 85.2102C145.619 85.7008 145.414 86.3437 145.414 87.0111C145.414 87.6785 145.619 88.3214 145.988 88.8119C146.358 89.3024 146.864 89.6046 147.407 89.6582H241.527C242.07 89.6046 242.577 89.3024 242.946 88.8119C243.316 88.3214 243.521 87.6785 243.521 87.0111C243.521 86.3437 243.316 85.7008 242.946 85.2102C242.577 84.7197 242.07 84.4176 241.527 84.364H147.407Z" fill="#E6E6E6"/>
<path d="M148.027 100.223C146.581 100.223 145.41 101.408 145.41 102.87C145.41 104.332 146.581 105.517 148.027 105.517H271.401C272.846 105.517 274.018 104.332 274.018 102.87C274.018 101.408 272.846 100.223 271.401 100.223H148.027Z" fill="#E6E6E6"/>
</svg>
